<?xml version="1.0" standalone="no"?>
<svg viewBox="0 0 200 200" xmlns="http://www.w3.org/2000/svg">
  <path fill="#FF0066" d="M45.9,-72.8C56.4,-64.7,59.5,-46.7,63.9,-31C68.4,-15.3,74,-1.9,75.5,13.2C76.9,28.3,74.2,45.1,64.8,56.5C55.5,67.9,39.5,73.9,23.7,76.6C8,79.2,-7.5,78.6,-22.8,75.3C-38.2,71.9,-53.4,65.7,-62,54.5C-70.6,43.3,-72.6,27,-72.4,11.9C-72.3,-3.2,-70.1,-17.1,-63.4,-27.7C-56.7,-38.4,-45.4,-45.7,-34,-53.4C-22.7,-61,-11.4,-69.1,3.2,-74C17.7,-79,35.5,-80.9,45.9,-72.8Z" transform="translate(100 100)" />
</svg>
